<svg width="70" height="70" viewBox="0 0 70 70" fill="none" xmlns="http://www.w3.org/2000/svg">
<path d="M35 0L70 14.9992V19.999H65.3337C65.3337 21.3658 64.2034 22.4998 62.8184 22.4998H7.18326C5.79822 22.4998 4.66797 21.3675 4.66797 19.999H0.0016333V14.9992L35 0ZM9.33268 25.0005H18.6654V55.0007H23.3317V25.0005H32.6644V55.0007H37.3307V25.0005H46.6634V55.0007H51.3297V25.0005H60.6624V55.0007H62.8135C64.1985 55.0007 65.3288 56.133 65.3288 57.5015V60.0022H4.66307V57.5015C4.66307 56.1348 5.79332 55.0007 7.17836 55.0007H9.32941V25.0005H9.33268ZM67.4831 62.4995C68.8681 62.4995 69.9984 63.6318 69.9984 65.0003V70H0V65.0003C0 63.6335 1.13024 62.4995 2.51528 62.4995H67.4831Z" fill="#AC8158"/>
</svg>
