<svg width="146" height="70" viewBox="0 0 146 70" fill="none" xmlns="http://www.w3.org/2000/svg">
<path d="M72.7177 70C53.0056 70 33.2934 70 13.5813 70C11.1066 70 8.63193 69.8287 6.41325 68.5436C2.23188 66.2305 0.0985352 62.5466 0.0985352 57.9204C-0.0721327 42.671 0.0132012 27.5073 0.0985352 12.2579C0.0985352 6.60364 4.0239 1.54907 9.3146 0.349676C11.1919 -0.0786775 13.0693 0.0069936 14.9466 0.0069936C43.0215 0.0069936 71.0964 0.0069936 99.1712 0.0069936C110.435 0.0069936 121.614 0.0069936 132.878 0.0069936C135.523 0.0069936 138.169 0.349676 140.388 2.06309C143.63 4.46187 145.593 7.54602 145.593 11.7439C145.593 27.1646 145.508 42.5854 145.678 57.9204C145.764 64.2601 140.558 69.743 133.902 69.8287C132.195 69.8287 130.489 69.8287 128.782 69.8287C110.009 70 91.4059 70 72.7177 70ZM72.8031 3.43382C58.6376 3.43382 44.5575 3.43382 30.3921 3.43382C23.992 3.43382 17.6773 3.34815 11.2773 3.5195C6.75458 3.60517 3.34123 7.46035 3.34123 12.0009C3.34123 27.593 3.34123 43.0994 3.34123 58.6915C3.34123 59.2055 3.34123 59.7195 3.42656 60.1479C4.10923 63.746 7.52259 66.7445 11.2773 66.9159C14.1786 67.0015 17.1653 66.9159 20.0667 66.9159C57.6989 66.9159 95.3312 66.9159 133.049 67.0015C138.766 67.0015 142.436 62.461 142.35 57.7491C142.18 48.411 142.265 39.0729 142.265 29.7347C142.265 23.9091 142.265 18.0835 142.265 12.1722C142.265 9.00242 140.9 6.60364 138.34 4.89023C136.548 3.69084 134.414 3.5195 132.366 3.5195C112.569 3.43382 92.6859 3.43382 72.8031 3.43382Z" fill="#AC8158"/>
<path d="M25.6987 28.0217C25.6987 22.7958 25.6987 17.6556 25.6987 12.4296C25.6987 11.6586 25.8694 11.3159 26.7227 11.3159C28.7707 11.4016 30.9041 11.4016 32.9521 11.3159C33.8054 11.3159 33.8908 11.5729 33.8908 12.344C33.8054 17.6556 33.8908 22.9671 33.8054 28.2787C33.8054 29.1354 34.1468 29.0498 34.7441 28.8784C37.3041 28.0217 39.8641 27.2507 42.5948 27.5077C48.9095 28.1931 53.9442 31.3629 56.3336 37.9595C58.8936 44.9845 56.1629 51.9239 51.6402 55.779C44.9842 61.4333 35.7681 60.8336 29.7947 54.4083C26.8934 51.2385 25.6987 47.3833 25.6134 43.0998C25.6134 38.1309 25.6987 33.0763 25.6987 28.0217ZM33.8054 43.6138C33.6348 48.5827 38.0721 51.2385 41.1442 51.3242C45.5815 51.4098 49.4215 47.6403 49.3362 43.2711C49.3362 39.0732 45.9229 35.7321 41.6562 35.7321C37.3041 35.5607 33.8908 39.0732 33.8054 43.6138Z" fill="#AC8158"/>
<path d="M103.609 42.1572C104.291 41.8145 104.633 41.4719 104.974 41.0435C108.046 37.3597 111.118 33.5045 113.934 29.6493C114.787 28.5356 115.726 27.8502 117.262 27.9359C119.651 28.1072 122.041 27.9359 124.686 27.9359C124.003 28.7926 123.491 29.5636 122.894 30.249C119.907 33.8472 117.006 37.4453 114.019 41.0435C113.337 41.9002 113.507 42.5856 114.019 43.3566C115.129 44.8987 116.238 46.3551 117.347 47.8972C119.907 51.2383 122.553 54.4938 125.113 57.835C125.283 58.0063 125.369 58.2633 125.539 58.4347C125.625 58.606 125.881 58.7773 125.71 59.0344C125.625 59.2914 125.369 59.12 125.113 59.12C122.211 59.12 119.31 59.12 116.409 59.12C115.726 59.12 115.385 58.863 115.043 58.349C111.545 53.8084 108.473 48.8395 105.059 44.2133C104.633 43.6136 104.121 43.0139 103.523 42.4999C103.267 42.9283 103.353 43.2709 103.353 43.6993C103.353 48.4969 103.353 53.2944 103.438 58.1777C103.438 58.863 103.267 58.9487 102.67 58.9487C100.451 58.9487 98.3179 58.9487 96.0992 58.9487C95.4166 58.9487 95.3312 58.6917 95.3312 58.092C95.3312 43.2709 95.3312 28.4499 95.3312 13.7145C95.3312 11.5728 95.3312 11.5728 97.5499 11.5728C99.2566 11.5728 100.963 11.5728 102.67 11.5728C103.438 11.5728 103.609 11.7441 103.609 12.5151C103.609 21.7676 103.609 31.02 103.609 40.2725C103.694 40.7865 103.609 41.3862 103.609 42.1572Z" fill="#AC8158"/>
<path d="M63.6723 35.3037C63.6723 27.5934 63.6723 19.9687 63.6723 12.2583C63.6723 11.4873 63.843 11.3159 64.611 11.3159C66.8297 11.4016 69.0483 11.3159 71.267 11.3159C71.779 11.3159 72.035 11.4873 72.035 12.0013C72.035 13.0293 72.035 14.1431 72.035 15.1711C72.035 28.6214 72.035 42.0717 72.035 55.522C72.035 56.4644 71.9497 57.3211 71.9497 58.2635C71.9497 58.8632 71.779 59.1202 71.0964 59.1202C68.963 59.1202 66.8297 59.1202 64.6963 59.2059C63.843 59.2059 63.6723 59.0345 63.6723 58.1778C63.6723 50.5531 63.6723 42.9284 63.6723 35.3037Z" fill="#AC8158"/>
<path d="M87.5658 43.6132C87.5658 48.5821 87.3952 53.551 87.7365 58.4342C87.7365 59.0339 87.5658 59.1196 86.9685 59.1196C84.7498 59.1196 82.5311 59.1196 80.3124 59.1196C79.6298 59.1196 79.4591 58.8626 79.4591 58.2629C79.4591 48.3251 79.4591 38.473 79.4591 28.5352C79.4591 27.7641 79.7151 27.5928 80.4831 27.5928C82.5311 27.6784 84.4938 27.7641 86.5418 27.7641C87.3952 27.7641 87.6512 28.0211 87.6512 28.8778C87.5658 33.8467 87.5658 38.73 87.5658 43.6132Z" fill="#AC8158"/>
<path d="M50.4456 8.91674C54.1149 9.00241 57.6989 12.8576 57.5283 16.5414C57.2723 20.7393 53.7736 23.7378 50.0189 23.7378C45.9229 23.7378 42.6802 20.2253 42.7655 15.9417C42.7655 12.0009 46.1789 8.83106 50.4456 8.91674Z" fill="#AC8158"/>
</svg>
