<svg width="105" height="70" viewBox="0 0 105 70" fill="none" xmlns="http://www.w3.org/2000/svg">
<path d="M42.002 48.999H63.0005V43.7488H56.001V19.2493H49.7659L41.6712 26.7412L45.8827 31.1168C47.1959 29.9678 48.0166 29.3676 48.8912 28.0005H49.0015V43.7512H42.002V48.999ZM70 35C70 44.9542 63.9854 57.7502 52.5 57.7502C41.0146 57.7502 35 44.9542 35 35C35 25.0458 41.0146 12.2498 52.5 12.2498C63.9854 12.2498 70 25.0458 70 35ZM98.0005 48.999V20.9985C90.2905 20.9985 84.0015 14.7095 84.0015 6.99951H21.0034C21.0034 14.7095 14.7144 20.9985 7.00441 20.9985V48.999C14.7144 48.999 21.0034 55.288 21.0034 62.998H84.0015C84.0015 55.288 90.2905 48.999 98.0005 48.999ZM105 3.50098V66.499C105 68.4124 103.415 70 101.499 70H3.50098C1.58757 70 0 68.4149 0 66.499V3.50098C0 1.58757 1.58512 0 3.50098 0H101.499C103.412 0 105 1.58512 105 3.50098Z" fill="#AC8158"/>
</svg>
