<svg width="56" height="56" viewBox="0 0 56 56" fill="none" xmlns="http://www.w3.org/2000/svg">
<path d="M34.1785 34.1785L44.8259 11.1741L21.8215 21.8215L11.1741 44.8259L34.1785 34.1785ZM28 0C35.7119 0 42.3065 2.7387 47.7839 8.21609C53.2613 13.6935 56 20.2881 56 28C56 35.7119 53.2613 42.3065 47.7839 47.7839C42.3065 53.2613 35.7119 56 28 56C20.2881 56 13.6935 53.2613 8.21609 47.7839C2.7387 42.3065 0 35.7119 0 28C0 20.2881 2.7387 13.6935 8.21609 8.21609C13.6935 2.7387 20.2881 0 28 0ZM28 24.9764C28.8761 24.9764 29.599 25.2613 30.1689 25.8311C30.7387 26.401 31.0236 27.1239 31.0236 28C31.0236 28.8761 30.7387 29.599 30.1689 30.1689C29.599 30.7387 28.8761 31.0236 28 31.0236C27.1239 31.0236 26.401 30.7387 25.8311 30.1689C25.2613 29.599 24.9764 28.8761 24.9764 28C24.9764 27.1239 25.2613 26.401 25.8311 25.8311C26.401 25.2613 27.1239 24.9764 28 24.9764Z" fill="#AC8158"/>
</svg>
