<svg width="70" height="56" viewBox="0 0 70 56" fill="none" xmlns="http://www.w3.org/2000/svg">
<path d="M34.8784 24.5587L62.8763 7.03982H6.87844L34.8784 24.5587ZM62.8763 48.956V14.0796L34.8784 31.435L6.88054 14.0796V48.956H62.8763ZM62.8763 0C64.7318 0 66.3421 0.709781 67.7072 2.12934C69.0723 3.5489 69.7548 5.18643 69.7548 7.04192V48.9581C69.7548 50.8136 69.0723 52.4511 67.7072 53.8707C66.3421 55.2902 64.7318 56 62.8763 56H6.87844C5.02295 56 3.41267 55.2902 2.0476 53.8707C0.682535 52.4511 0 50.8136 0 48.9581V7.04192C0 5.18643 0.682535 3.5489 2.0476 2.12934C3.41267 0.709781 5.02295 0 6.87844 0H62.8763Z" fill="#AC8158"/>
</svg>
