<svg fill="none" height="55" viewBox="0 0 87 55" width="87"
     xmlns="http://www.w3.org/2000/svg">
  <path
    d="M7.25197 33.8601C10.4238 33.8601 10.4238 29.0231 7.25197 29.0231C4.08019 29.0231 4.08019 33.8601 7.25197 33.8601ZM62.8707 31.6693C59.8884 27.7771 56.9805 23.8087 53.5821 20.2567L48.8624 25.5474C44.7095 30.2709 37.2698 30.1575 33.2302 25.3205C30.3612 21.8431 30.3612 16.8555 33.3063 13.417L39.9899 5.63252C37.6487 4.42371 34.8169 4.8385 32.2863 4.8385C30.0584 4.8385 27.9066 5.74595 26.3199 7.3323L20.3536 13.3035H14.5006V33.8618C16.1617 33.8618 17.6723 33.6349 18.9935 34.9199L30.2073 45.9549C32.5112 48.1846 35.4936 50.1502 38.7787 50.1502C40.4771 50.1502 42.2905 49.583 43.4983 48.3742C46.3301 49.3562 49.6152 47.7698 50.483 44.8595C52.2947 45.0102 53.9576 44.4431 55.2787 43.197C56.1465 42.403 57.2799 40.8166 57.1666 39.5689C57.5066 39.9092 58.3372 39.9464 58.7905 39.9464C63.2835 39.9464 65.6247 35.2229 62.869 31.671L62.8707 31.6693ZM68.8743 33.8601H72.4994V14.5107H68.9876L63.0602 7.70815C61.4735 5.89494 59.095 4.83681 56.6794 4.83681H50.3731C48.2585 4.83681 46.2201 5.7815 44.8601 7.36955L36.9687 16.5524C35.5714 18.215 35.5714 20.5581 36.9314 22.2206C39.0832 24.7906 43.0483 24.8279 45.2762 22.3341L52.5637 14.0959C54.301 12.1692 57.4728 13.9824 56.6794 16.439C58.1139 18.1015 59.6617 19.7268 61.059 21.3894C62.9469 23.7325 64.7603 26.189 66.6092 28.5694C67.7798 30.0813 68.6476 31.8945 68.8743 33.8601ZM79.7497 33.8601C82.9215 33.8601 82.9215 29.0231 79.7497 29.0231C76.5779 29.0231 76.5779 33.8601 79.7497 33.8601ZM87 12.093V36.2794C87 37.6016 85.9055 38.6987 84.5827 38.6987H68.1943C66.8342 41.9865 63.8519 44.179 60.3773 44.6699C58.7533 47.0503 56.2616 48.8652 53.467 49.4696C51.3897 52.1158 48.0302 53.7021 44.6689 53.4753C38.4387 56.99 31.4151 53.929 26.7716 49.3562L15.9351 38.6987H2.41732C1.09617 38.6987 0 37.6033 0 36.2794V10.8842C0 9.56199 1.09448 8.46492 2.41732 8.46492H18.3135C22.6931 4.08172 25.7143 -0.00012207 32.2846 -0.00012207H36.7031C39.1576 -0.00012207 41.536 0.75496 43.5372 2.11614C45.5384 0.75496 47.9168 -0.00012207 50.3714 -0.00012207H56.6777C63.8519 -0.00012207 66.8342 4.68613 71.1766 9.67373H84.581C85.9021 9.67373 87 10.7691 87 12.093Z"
    fill="#AC8158" />
</svg>
