<svg width="98" height="44" viewBox="0 0 98 44" fill="none" xmlns="http://www.w3.org/2000/svg">
<path d="M75.9881 -0.00012207C82.1134 -0.00012207 87.3134 2.16776 91.588 6.50352C95.8627 10.8393 98 16.0043 98 21.9986C98 27.993 95.8627 33.158 91.588 37.4938C87.3134 41.8295 82.1134 43.9974 75.9881 43.9974H75.797C73.373 43.9974 70.6615 43.36 67.6626 42.085C64.6636 40.8101 62.207 39.2797 60.2926 37.4938L55.1253 32.9025L61.2506 27.5449L66.0357 31.5631C68.8435 34.3693 72.1618 35.7724 75.9905 35.7724C79.8193 35.7724 83.073 34.4329 85.7518 31.7541C88.4306 29.0753 89.7709 25.8235 89.7725 21.9986C89.7741 18.1738 88.4339 14.922 85.7518 12.2432C83.0698 9.56435 79.816 8.22493 75.9905 8.22493C72.1651 8.22493 68.9113 9.56435 66.2293 12.2432C57.1687 20.1507 51.4264 25.2521 49.0024 27.5473L37.5163 37.6872C33.3053 41.8957 28.1372 43.9999 22.0119 43.9999C15.8866 43.9999 10.6866 41.832 6.41197 37.4962C2.13732 33.1605 0 27.9954 0 22.0011C0 16.0068 2.13732 10.8417 6.41197 6.50597C10.6866 2.17021 15.8866 0.00232758 22.0119 0.00232758H22.203C24.756 0.00232758 27.5312 0.639796 30.5285 1.91473C33.5258 3.18967 35.9188 4.72008 37.7074 6.50597L42.8747 11.0972L36.5583 16.4549L31.9643 12.4366C29.1565 9.63046 25.8382 8.22738 22.0094 8.22738C18.1807 8.22738 14.927 9.5668 12.2482 12.2456C9.56936 14.9245 8.22914 18.1763 8.22751 22.0011C8.22588 25.8259 9.5661 29.0777 12.2482 31.7566C14.9302 34.4354 18.184 35.7748 22.0094 35.7748C25.8349 35.7748 29.0887 34.4354 31.7707 31.7566C40.8313 23.849 46.5736 18.7476 48.9975 16.4524L60.4837 6.31253C64.6947 2.10409 69.8628 -0.00012207 75.9881 -0.00012207Z" fill="#AC8158"/>
</svg>
