<svg width="223" height="91" viewBox="0 0 223 91" fill="none" xmlns="http://www.w3.org/2000/svg">
<path d="M151.899 3.47497C148.424 1.52779 136.768 13.6534 126.96 30.7577C124.211 35.6478 121.704 40.2059 119.681 44.3658C110.114 53.4158 96.1052 65.4529 88.496 65.4529C87.6163 65.4529 86.8026 65.298 86.1428 64.9661C84.6034 64.2359 83.9656 62.51 83.9656 60.0761C83.9656 54.4558 87.4843 45.096 91.7068 36.046V36.0682C97.2048 28.5671 104.374 19.1852 108.333 12.7462C111.983 6.79404 114.644 1.17376 112.863 0.355055C110.114 -0.773426 102.087 11.1088 93.4442 28.3016C92.8724 29.2752 92.3885 30.3372 91.7508 31.4657L90.6732 33.3908C89.7935 34.3644 88.9138 35.4044 87.9462 36.3558C77.1701 47.8398 54.2763 61.6913 34.9234 64.8555C30.7889 65.4972 27.0722 65.8291 23.7514 65.8291C12.0077 65.8291 5.60797 61.9126 3.76064 56.4472C3.36478 55.2302 3.12287 54.0132 3.12287 52.6192C3.12287 43.9897 12.1176 32.5057 37.1226 27.0403C42.8185 25.7348 48.5144 25.1595 53.9465 25.0931V25.1153C53.6826 28.1688 54.3423 31.2887 56.4096 33.7669C58.1689 36.2231 60.654 38.2366 63.6889 39.4094C65.2064 40.0289 66.7898 40.5821 68.5052 40.56C69.5828 40.6042 70.6604 40.4715 71.672 40.1174C72.1999 39.9404 72.7717 39.7191 73.0575 39.2545C73.5194 38.303 72.3098 37.6392 71.5181 37.2852C71.3862 37.2409 71.1882 37.1524 71.1003 37.1303C71.1882 37.1745 71.2762 37.2188 71.3642 37.263C71.936 37.6392 73.2555 38.48 72.5517 39.166C72.2218 39.3872 71.826 39.4979 71.4301 39.6085C70.7924 39.7634 70.3305 39.8519 69.5388 39.874C68.9011 39.874 67.4936 39.8519 66.328 39.52C63.9968 38.8119 61.1379 37.5064 59.2246 35.6699C58.6967 35.1388 58.1689 34.5414 57.6411 33.8997C58.6967 34.0767 59.7744 34.1874 60.852 33.9882C61.8196 33.8112 63.2711 33.3244 63.8209 32.8597C61.7976 33.4793 59.8843 33.7448 57.6411 33.8776C56.6515 32.6385 55.7278 31.2223 55.134 29.7619C56.8054 29.7177 59.5105 28.9211 59.4885 27.1731C59.4885 26.6642 59.4225 27.2837 59.3125 27.4829C59.0926 28.0139 58.5648 28.3237 58.015 28.6113C57.1133 29.1203 56.1677 29.4743 55.134 29.7619C55.0021 29.43 54.8701 29.076 54.7602 28.722C54.4083 27.6377 54.2544 26.4208 54.1444 25.1595H54.1664H54.1884C54.1664 25.1153 54.1444 25.071 54.1224 25.0268C54.1224 24.8276 54.1004 24.6063 54.0784 24.4072C54.0564 24.5621 54.0344 24.6948 54.0344 24.8276C53.8145 24.2966 53.7485 23.6991 53.8365 23.1459C54.3423 24.54 55.0021 26.1995 55.4859 27.3501C54.9361 24.7834 54.2983 22.3936 53.8585 20.3358C53.3087 17.9461 53.8805 15.9325 55.6838 14.1402C56.6515 13.3437 57.6851 12.6356 58.6088 11.8169C57.5312 12.5913 56.2776 13.1888 55.2 13.9632C52.0551 16.6848 52.429 19.4507 53.7046 22.7919C53.7265 22.8583 53.7485 22.9247 53.7705 22.9689C48.1626 23.0574 42.2907 23.7213 36.1329 25.071C13.0413 30.2709 0 41.5114 0 53.6592C0 55.4515 0.329881 57.2438 0.879681 59.1246C3.8706 68.9048 14.6467 72.7327 26.3904 72.7327C31.8885 72.7327 37.5624 71.914 42.7525 70.4537C61.2918 65.2317 75.9385 52.6856 88.0121 39.343C84.6034 46.6007 81.4585 54.8098 81.4585 60.5186C81.4585 63.6164 82.4262 65.8955 84.6913 66.9576C85.659 67.4444 86.7146 67.5993 87.9242 67.5993C95.6214 67.5993 107.035 58.5493 117.547 48.7912C114.139 56.2038 112.115 62.5543 112.115 66.6257C112.115 69.0596 112.841 70.697 114.535 71.2724C118.185 72.4893 122.056 68.6614 123.441 66.5372C123.837 65.807 123.837 65.3866 123.595 65.3202C123.353 65.2317 122.87 65.4087 122.474 65.9619C121.088 67.7541 118.031 70.8519 115.678 69.6349C113.017 68.1746 118.031 55.0532 125.311 41.2016L127.422 39.0774C140.485 26.111 155.946 5.66555 151.899 3.47497ZM128.258 35.8911C137.802 19.1852 147.369 4.93536 149.788 6.39575C151.569 7.45785 136.021 28.1467 128.258 35.8911Z" fill="#575756"/>
<path d="M159.178 21.5528C157.969 21.5528 155.77 23.5885 154.406 26.111C152.955 28.6335 152.779 30.6692 154.01 30.6692C155.22 30.6692 157.419 28.6335 158.783 26.111C160.234 23.5885 160.388 21.5528 159.178 21.5528Z" fill="#575756"/>
<path d="M221.196 48.4372C220.866 48.4372 220.558 48.5257 220.316 48.7691C218.865 50.7163 213.037 55.8498 210.442 57.974C207.451 60.408 201.777 64.6564 199.028 64.6564C198.214 64.6564 197.642 64.2581 197.642 63.019C197.642 59.7663 199.82 55.8498 203.954 49.4108C207.759 43.4586 213.103 36.378 213.103 35.7141C213.103 35.4707 212.773 35.3822 212.289 35.3822C210.508 35.3822 210.596 35.5371 208.089 38.0596V37.4843C208.089 35.9354 207.121 34.3865 204.13 34.3865C198.456 34.3865 188.01 39.8519 180.819 49.0568C180.555 49.3887 180.313 49.7206 180.049 50.0525C177.762 52.4201 173.473 56.2038 171.34 57.9297C168.261 60.3637 162.675 64.6121 159.838 64.6121C158.695 64.6121 157.903 63.9483 157.903 62.1781C157.903 51.9112 181.39 18.0346 190.297 4.82474C192.716 5.22303 194.586 5.95322 195.729 6.46214H195.641C197.95 7.70126 199.248 9.00676 199.248 9.00676L200.215 8.76336L200.303 8.60847C200.303 8.21018 198.28 5.02388 191.309 3.3201L191.881 2.5014C191.881 2.41289 191.968 2.34651 191.968 2.258C191.968 1.61631 190.187 1.12952 189.219 1.12952C188.978 1.12952 188.824 1.12952 188.736 1.21803C188.494 1.37291 187.922 1.79333 187.284 2.61203C185.503 2.36863 183.392 2.21374 181.126 2.21374C171.494 2.21374 165.512 5.55493 165.512 9.62632C165.512 14.0296 171.252 14.6713 173.363 14.6713C175.628 14.6713 176.53 13.9411 176.53 13.2109C176.53 12.4807 175.716 11.7505 174.507 11.7505C173.693 11.7505 172.637 12.1488 171.67 13.2109C169.647 12.879 167.953 12.0603 167.953 10.5114C167.953 6.35151 176.046 4.24943 183.59 4.24943C184.403 4.24943 185.129 4.33794 185.943 4.33794C178.773 13.1888 161.114 38.9447 154.824 53.8362C153.043 55.4515 151.217 57.0225 150.03 57.974C147.523 60.0097 143.146 63.3509 140.155 64.3245C138.286 64.9883 136.922 64.8113 137.318 62.2003C137.714 59.0361 139.737 55.363 143.542 49.4108C147.259 43.5471 151.481 37.6835 152.603 35.9797C153.241 35.0725 150.579 35.4044 150.008 35.8248C148.864 36.732 142.244 43.9012 138.836 48.2823C136.483 51.2916 132.04 57.0889 131.226 60.7399C130.655 63.3509 131.226 66.9355 135.427 67.4886C139.803 68.0639 147.259 62.3552 150.25 60.0761C151.129 59.3901 152.229 58.505 153.394 57.5093C152.823 59.2574 152.515 60.762 152.515 61.9347C152.515 65.7627 154.45 67.4665 157.617 67.4665C161.905 67.4665 168.547 62.2445 171.538 60.0539C172.923 59.014 174.837 57.4208 176.706 55.7834C175.87 57.8191 175.496 59.6556 175.496 61.2709C175.496 64.8555 177.52 67.4665 180.511 67.4665C184.403 67.4665 188.362 64.1253 191.771 60.2088C191.529 61.0275 191.375 61.8462 191.375 62.5764C191.375 65.0989 193.002 67.555 196.477 67.555C200.853 67.4665 207.803 62.1781 210.64 60.0539C213.807 57.6863 219.7 52.4865 221.57 50.1853C221.9 49.787 222.054 49.3666 222.054 49.1231C222.076 48.6806 221.68 48.4372 221.196 48.4372ZM196.015 52.929C192.606 57.5757 185.657 65.1432 182.49 65.1432C181.28 65.1432 180.621 63.9262 180.621 62.2888C180.533 58.8591 183.458 52.6856 189.373 45.9147C194.805 39.7191 200.699 36.2231 203.778 36.2231C205.56 36.2231 206.197 37.4401 206.197 38.7456C206.197 39.7191 205.801 40.8698 205.23 41.5114C201.755 45.4943 199.182 48.6806 196.015 52.929Z" fill="#575756"/>
<path d="M72.6397 81.2738H72.6177C72.6177 81.0304 72.5077 80.8312 72.3318 80.6764C72.1559 80.5215 71.9359 80.433 71.672 80.433H71.4521V80.2781H72.8596L72.6397 81.2738ZM72.6397 88.8413L72.8376 89.8591H71.4301V89.7042H71.65C71.9139 89.7042 72.1339 89.6157 72.3098 89.4387C72.4857 89.2617 72.5737 89.0625 72.5957 88.8413H72.6397ZM73.6073 80.2559V89.8591H72.5957V80.2559H73.6073ZM73.5633 88.8413H73.5853C73.5853 89.0847 73.6953 89.2838 73.8712 89.4387C74.0472 89.6157 74.2671 89.7042 74.531 89.7042H74.7509V89.8591H73.3434L73.5633 88.8413ZM77.9398 80.2559V80.7427H73.5853V80.2559H77.9398ZM77.192 84.8141V85.3009H73.5853V84.8141H77.192ZM77.9398 80.0125V80.433L76.1144 80.2781C76.3343 80.2781 76.5763 80.2559 76.8182 80.2338C77.0601 80.2117 77.28 80.1674 77.4999 80.1232C77.6759 80.0789 77.8298 80.0347 77.9398 80.0125ZM77.192 83.9512V84.8584H76.3563V84.8363C76.5982 84.8363 76.7522 84.7699 76.8622 84.6371C76.9721 84.5043 77.0161 84.3495 77.0161 84.1724V83.9733H77.192V83.9512ZM77.192 85.2788V86.186H77.0161V85.9869C77.0161 85.8098 76.9721 85.655 76.8622 85.5222C76.7522 85.3894 76.5982 85.323 76.3563 85.323V85.3009H77.192V85.2788ZM77.9398 80.7206V81.827H77.7638V81.5836C77.7638 81.3623 77.6978 81.1632 77.5439 81.0083C77.39 80.8534 77.214 80.7649 76.9721 80.7649V80.7206H77.9398Z" fill="#575756"/>
<path d="M86.4947 81.2959H86.4727C86.4727 81.0525 86.3627 80.8534 86.1868 80.6764C86.0109 80.5215 85.7909 80.433 85.527 80.433H85.3291V80.2781H86.5167V81.2959H86.4947ZM86.4947 88.8413L86.6926 89.8591H85.3291V89.7042H85.549C85.8129 89.7042 86.0328 89.6157 86.2088 89.4387C86.3847 89.2617 86.4727 89.0625 86.4727 88.8413H86.4947ZM87.4843 80.256V89.8591H86.4727V80.256H87.4843ZM87.4403 81.2959V80.2781H88.6279V80.433H88.43C88.1661 80.433 87.9462 80.5215 87.7702 80.6764C87.5943 80.8313 87.4843 81.0525 87.4843 81.2959H87.4403ZM91.7728 89.3723L91.7508 89.8591H87.4623V89.3723H91.7728ZM92.6524 87.58L91.7728 89.8591H89.3536L89.9034 89.3723C90.4313 89.3723 90.8711 89.3059 91.179 89.151C91.5089 88.9962 91.7728 88.7749 91.9707 88.5094C92.1686 88.2438 92.3446 87.934 92.4985 87.58H92.6524Z" fill="#575756"/>
<path d="M104.616 80.0347C105.364 80.0347 106.046 80.1453 106.705 80.3887C107.365 80.6321 107.937 80.964 108.421 81.4287C108.905 81.8712 109.3 82.4023 109.564 83.0218C109.85 83.6414 109.982 84.3052 109.982 85.0575C109.982 85.8098 109.85 86.4736 109.564 87.0932C109.278 87.7128 108.905 88.2438 108.421 88.6864C107.937 89.1289 107.365 89.4829 106.705 89.7263C106.046 89.9697 105.364 90.0804 104.616 90.0804C103.868 90.0804 103.187 89.9697 102.527 89.7263C101.889 89.4829 101.317 89.151 100.811 88.6864C100.328 88.2438 99.9318 87.7128 99.6679 87.0932C99.382 86.4736 99.2501 85.8098 99.2501 85.0575C99.2501 84.3052 99.382 83.6414 99.6679 83.0218C99.9538 82.4023 100.328 81.8712 100.811 81.4287C101.295 80.9861 101.867 80.6321 102.527 80.3887C103.187 80.1674 103.868 80.0347 104.616 80.0347ZM104.616 89.6157C105.408 89.6157 106.112 89.4166 106.749 89.0404C107.387 88.6642 107.893 88.1332 108.267 87.4472C108.641 86.7613 108.817 85.9647 108.817 85.0796C108.817 84.1724 108.641 83.3759 108.267 82.712C107.893 82.0261 107.387 81.4951 106.749 81.1189C106.112 80.7427 105.408 80.5436 104.616 80.5436C103.846 80.5436 103.143 80.7427 102.505 81.1189C101.867 81.4951 101.361 82.0261 100.987 82.712C100.614 83.398 100.438 84.1724 100.438 85.0796C100.438 85.9647 100.614 86.7613 100.987 87.4472C101.361 88.1332 101.867 88.6642 102.505 89.0404C103.143 89.4166 103.846 89.6157 104.616 89.6157Z" fill="#575756"/>
<path d="M118.141 81.2738H118.097C118.097 81.0304 117.987 80.8313 117.833 80.6764C117.657 80.5215 117.459 80.433 117.196 80.433H116.976V80.2781H118.317L118.141 81.2738ZM118.141 88.8413L118.339 89.8591H116.998V89.7042H117.218C117.481 89.7042 117.679 89.6157 117.855 89.4387C118.031 89.2617 118.119 89.0625 118.119 88.8413H118.141ZM119.109 80.256V89.8591H118.097V80.256H119.109ZM119.065 88.8413H119.109C119.109 89.0847 119.219 89.2838 119.373 89.4387C119.549 89.6157 119.747 89.7042 120.011 89.7042H120.208L120.23 89.8591H118.867L119.065 88.8413ZM120.978 80.256C121.484 80.256 121.924 80.3223 122.32 80.433C122.716 80.5436 123.067 80.7206 123.331 80.9419C123.617 81.1632 123.837 81.4287 123.969 81.7606C124.123 82.0704 124.189 82.4465 124.189 82.8448C124.189 83.2874 124.079 83.7078 123.881 84.0839C123.661 84.4601 123.375 84.792 123.001 85.0354C122.628 85.2788 122.188 85.4337 121.726 85.4779C121.902 85.5443 122.122 85.7213 122.364 85.9647C122.606 86.2303 122.804 86.4737 122.979 86.7171C123.265 87.0932 123.507 87.403 123.727 87.6907C123.947 87.9562 124.167 88.2217 124.365 88.4651C124.585 88.7085 124.783 88.9298 124.981 89.1068C125.157 89.2838 125.377 89.4387 125.575 89.5272C125.794 89.6378 126.036 89.6821 126.322 89.6821V89.837H125.838C125.245 89.837 124.783 89.7706 124.409 89.6157C124.035 89.4608 123.727 89.2838 123.485 89.0625C123.243 88.8413 123.045 88.6421 122.891 88.4208C122.848 88.3766 122.76 88.2217 122.606 88.0226C122.452 87.8013 122.276 87.5579 122.1 87.3145C121.924 87.049 121.748 86.8277 121.616 86.6286C121.462 86.4294 121.374 86.2966 121.352 86.2524C121.132 85.9647 120.89 85.7213 120.626 85.5001C120.34 85.2788 120.055 85.1682 119.747 85.1682V85.0133C120.077 85.0133 120.384 85.0133 120.648 85.0133C120.934 85.0133 121.242 84.969 121.55 84.9469C121.836 84.9026 122.122 84.792 122.386 84.5929C122.65 84.3937 122.848 84.0839 123.001 83.6414C123.045 83.5308 123.067 83.3759 123.089 83.221C123.111 83.0661 123.111 82.8891 123.111 82.7342C123.111 82.4465 123.045 82.1589 122.935 81.9376C122.826 81.6942 122.694 81.4951 122.496 81.3402C122.32 81.1632 122.1 81.0304 121.836 80.9419C121.572 80.8534 121.286 80.787 120.978 80.787C120.472 80.7649 120.055 80.7649 119.681 80.7649C119.307 80.7649 119.131 80.7649 119.131 80.7649C119.131 80.7649 119.109 80.6985 119.087 80.6321C119.065 80.5436 119.021 80.433 118.977 80.2781H120.978V80.256Z" fill="#575756"/>
<path d="M133.844 81.2738L132.502 81.2295C132.326 80.9861 132.128 80.787 131.864 80.6542C131.622 80.4993 131.336 80.4329 131.029 80.4329H130.853V80.278H134.547V80.4329H134.349C134.107 80.4329 133.953 80.5214 133.844 80.7206C133.756 80.8976 133.756 81.0746 133.844 81.2738ZM133.294 80.278L136.241 85.5443L135.581 86.0975L131.908 80.278H133.294ZM135.493 88.8412V89.8591H134.327V89.7042C134.327 89.7042 134.393 89.7042 134.525 89.7042C134.789 89.7042 134.987 89.6157 135.163 89.4387C135.339 89.2616 135.427 89.0625 135.449 88.8412H135.493ZM136.483 85.7434V89.8812H135.449V85.7434H136.483ZM139.144 80.278H140.155L136.373 86.0753L135.779 85.8983L139.144 80.278ZM136.439 88.8412H136.483C136.483 89.0846 136.593 89.2838 136.768 89.4387C136.944 89.6157 137.164 89.7042 137.406 89.7042H137.604V89.8591H136.439V88.8412ZM138.55 81.2959C138.66 81.0746 138.682 80.8755 138.572 80.6985C138.462 80.5214 138.286 80.4329 138.066 80.4329H137.868V80.278H141.189V80.4329H140.991C140.683 80.4329 140.419 80.5214 140.155 80.6763C139.891 80.8312 139.693 81.0304 139.539 81.2516L138.55 81.2959Z" fill="#575756"/>
<path d="M150.404 80.0347C150.689 80.0347 150.953 80.0347 151.173 80.0568C151.393 80.0789 151.591 80.101 151.745 80.1232C151.899 80.1453 152.053 80.1896 152.185 80.2117C152.317 80.2559 152.405 80.2781 152.515 80.3223L152.537 81.9155H152.339C152.339 81.4729 152.185 81.141 151.899 80.8755C151.591 80.6321 151.151 80.4993 150.513 80.4993C149.986 80.4993 149.524 80.6542 149.15 80.9419C148.776 81.2295 148.6 81.6057 148.6 82.0261C148.6 82.1589 148.622 82.3138 148.666 82.4465C148.71 82.6014 148.776 82.7342 148.864 82.8669C148.952 82.9997 149.084 83.1546 149.238 83.2874L152.449 85.7877C152.691 85.9869 152.867 86.2524 152.999 86.5622C153.109 86.8719 153.174 87.1817 153.196 87.4915C153.196 87.9562 153.087 88.3987 152.823 88.797C152.559 89.1953 152.229 89.5051 151.789 89.7263C151.349 89.9476 150.887 90.0804 150.36 90.0804C150.052 90.0804 149.722 90.0582 149.37 89.9919C149.018 89.9476 148.688 89.8591 148.38 89.7485C148.072 89.6378 147.808 89.5051 147.611 89.328C147.589 89.1732 147.567 88.9961 147.567 88.7527C147.567 88.5315 147.589 88.2881 147.633 88.0225C147.676 87.757 147.72 87.5357 147.786 87.3366H147.984C147.94 87.8234 148.006 88.2217 148.182 88.5757C148.358 88.9076 148.622 89.1732 148.974 89.3502C149.326 89.5272 149.722 89.6157 150.206 89.5936C150.865 89.5714 151.371 89.3944 151.767 89.0846C152.141 88.7749 152.339 88.3545 152.339 87.8234C152.339 87.5579 152.295 87.3366 152.207 87.1375C152.119 86.9383 151.965 86.7392 151.767 86.5622L148.578 84.106C148.27 83.8405 148.072 83.575 147.984 83.2652C147.874 82.9554 147.83 82.6678 147.83 82.3801C147.83 81.9376 147.94 81.5393 148.182 81.1853C148.424 80.8312 148.732 80.5436 149.128 80.3444C149.458 80.1453 149.898 80.0347 150.404 80.0347ZM152.493 80.1896L152.515 80.4772H151.393V80.1896H152.493Z" fill="#575756"/>
<path d="M159.838 79.9904C159.926 80.0125 160.08 80.0568 160.278 80.1011C160.476 80.1453 160.696 80.1896 160.938 80.2117C161.18 80.2338 161.4 80.2559 161.619 80.2559L159.838 80.4108V79.9904ZM168.569 80.2559V80.7427H159.838V80.2559H168.569ZM160.806 80.6985V80.7206C160.564 80.7206 160.366 80.8091 160.234 80.964C160.08 81.1189 160.014 81.318 160.014 81.5393V81.8048H159.838V80.6985H160.806ZM163.709 88.8413V89.8591H162.543V89.7042C162.543 89.7042 162.609 89.7042 162.741 89.7042C163.005 89.7042 163.203 89.6157 163.401 89.4387C163.577 89.2617 163.687 89.0625 163.687 88.8413H163.709ZM164.72 80.3002V89.8591H163.687V80.3002H164.72ZM164.654 88.8413H164.698C164.698 89.0846 164.808 89.2838 164.984 89.4387C165.16 89.6157 165.38 89.7042 165.644 89.7042H165.82V89.8591H164.654V88.8413ZM168.569 79.9904V80.4108L166.788 80.2559C167.008 80.2559 167.227 80.2338 167.469 80.2117C167.711 80.1896 167.931 80.1453 168.129 80.1011C168.305 80.0568 168.459 80.0125 168.569 79.9904ZM168.569 80.6985V81.8048H168.393V81.5393C168.393 81.318 168.327 81.1189 168.173 80.964C168.019 80.8091 167.843 80.7206 167.601 80.7206V80.6985H168.569Z" fill="#575756"/>
<path d="M177.432 81.2738L176.09 81.2295C175.914 80.9861 175.716 80.787 175.452 80.6542C175.211 80.4993 174.925 80.4329 174.617 80.4329H174.419V80.278H178.113V80.4329H177.916C177.674 80.4329 177.52 80.5214 177.41 80.7206C177.322 80.8976 177.322 81.0746 177.432 81.2738ZM176.882 80.278L179.829 85.5443L179.169 86.0975L175.496 80.278H176.882ZM179.081 88.8412V89.8591H177.916V89.7042C177.916 89.7042 177.982 89.7042 178.113 89.7042C178.377 89.7042 178.575 89.6157 178.751 89.4387C178.927 89.2616 179.015 89.0625 179.037 88.8412H179.081ZM180.049 85.7434V89.8812H179.015V85.7434H180.049ZM182.732 80.278H183.743L179.961 86.0753L179.367 85.8983L182.732 80.278ZM180.005 88.8412H180.049C180.049 89.0846 180.159 89.2838 180.335 89.4387C180.511 89.6157 180.731 89.7042 180.972 89.7042H181.17V89.8591H180.005V88.8412ZM182.116 81.2959C182.226 81.0746 182.248 80.8755 182.138 80.6985C182.028 80.5214 181.852 80.4329 181.632 80.4329H181.434V80.278H184.755V80.4329H184.557C184.271 80.4329 183.985 80.5214 183.721 80.6763C183.458 80.8312 183.26 81.0304 183.106 81.2516L182.116 81.2959Z" fill="#575756"/>
<path d="M192.298 81.2959H192.276C192.276 81.0525 192.166 80.8534 191.99 80.6764C191.815 80.5215 191.595 80.433 191.331 80.433H191.133V80.2781H192.298V81.2959ZM192.298 88.8413V89.8591H191.133V89.7042H191.331C191.595 89.7042 191.793 89.6157 191.99 89.4387C192.166 89.2617 192.276 89.0625 192.276 88.8413H192.298ZM193.266 80.256V89.8591H192.254V80.256H193.266ZM193.222 81.2959V80.2781H194.388V80.433C194.278 80.433 194.212 80.433 194.19 80.433C193.926 80.433 193.728 80.5215 193.53 80.6764C193.354 80.8313 193.266 81.0525 193.266 81.2959H193.222ZM193.222 88.8413H193.266C193.266 89.0847 193.354 89.2838 193.53 89.4387C193.706 89.6157 193.926 89.7042 194.19 89.7042H194.366V89.8591H193.2V88.8413H193.222ZM198.962 80.3666L194.564 85.0797H193.816L197.818 80.3666H198.962ZM194.717 84.5044L198.874 89.0404C199.05 89.2617 199.248 89.4166 199.446 89.5272C199.644 89.6378 199.908 89.6821 200.259 89.7042V89.8591H199.666C199.534 89.8591 199.38 89.8591 199.204 89.837C199.028 89.8149 198.808 89.7927 198.61 89.7263C198.39 89.66 198.17 89.5715 197.95 89.4608C197.73 89.3281 197.532 89.1732 197.335 88.9519C197.005 88.5757 196.719 88.2438 196.455 87.9562C196.191 87.6685 195.905 87.3587 195.597 87.0268C195.289 86.6949 195.003 86.3852 194.739 86.0975C194.476 85.8098 194.168 85.4779 193.838 85.1018L194.717 84.5044ZM199.996 80.256V80.4108H199.93C199.6 80.4108 199.292 80.4551 199.006 80.5657C198.72 80.6764 198.5 80.8313 198.324 81.0525L197.247 81.0304C197.357 80.8755 197.378 80.7427 197.313 80.61C197.225 80.4772 197.093 80.4108 196.917 80.4108H196.763V80.256H199.952H199.996Z" fill="#575756"/>
<path d="M208.023 88.6864C207.913 88.9961 207.913 89.2617 208.067 89.4387C208.221 89.6157 208.375 89.7042 208.573 89.7042H208.704V89.8591H205.67V89.7042H205.802C206.021 89.7042 206.241 89.6378 206.483 89.4829C206.725 89.328 206.923 89.0625 207.077 88.7085H208.023V88.6864ZM211.102 80.0347L211.212 81.141L207.561 89.8148H206.549L210.31 81.6942C210.42 81.4287 210.53 81.2074 210.596 81.0304C210.684 80.8534 210.75 80.6542 210.816 80.4772C210.882 80.3002 210.926 80.1453 210.926 80.0347H211.102ZM212.971 86.1417V86.6285H208.748V86.1417H212.971ZM211.102 80.0347L215.478 89.7706H214.202L210.816 81.4729L211.102 80.0347ZM213.785 88.6864H214.994C215.148 89.0404 215.346 89.3059 215.588 89.4608C215.83 89.6157 216.05 89.6821 216.248 89.6821H216.38V89.837H213.103V89.6821H213.235C213.411 89.6821 213.587 89.5936 213.719 89.4165C213.873 89.2617 213.895 89.0183 213.785 88.6864Z" fill="#575756"/>
<path d="M78.0058 38.0596C80.073 37.3737 82.3602 36.6435 83.6577 34.9618C83.8996 34.6299 84.1415 34.1874 83.9216 33.8334C83.7677 33.6121 83.3938 33.5457 83.1299 33.6785C82.756 33.8555 82.0743 34.2317 81.8324 34.3423C81.7004 34.4087 81.5685 34.4529 81.4365 34.4972C81.6784 34.2317 81.8324 33.9219 81.7444 33.59C81.6784 33.3908 81.5025 33.1917 81.2606 33.1696C80.8427 33.1696 80.7328 33.3687 80.3589 33.4793C79.6991 33.767 78.9514 33.8997 78.3356 34.2759C79.1274 33.9883 80.007 34.0104 80.8207 33.7449C80.9087 33.7006 81.0627 33.6785 81.1506 33.6564C81.3046 33.8776 80.8207 34.3644 80.183 34.8733C80.161 34.8733 80.139 34.8733 80.117 34.8955C80.139 34.8955 80.139 34.8955 80.161 34.8955C79.6552 35.3159 79.0394 35.7363 78.5336 36.0903C78.1597 36.3559 77.7638 36.6214 77.368 36.8869C77.5439 36.8205 77.7199 36.7541 77.8958 36.6878C78.9514 36.2452 80.007 35.7363 80.9087 35.0504C80.9967 34.984 81.0846 34.8955 81.1726 34.8291C81.8983 34.7185 82.5801 34.4972 83.2619 34.2317C83.2838 34.2317 83.3278 34.2095 83.3498 34.2095C83.3498 34.2317 83.3498 34.2538 83.3278 34.2538C83.1959 34.6078 82.5361 35.1167 82.3602 35.2495C80.6668 36.4001 79.4792 36.7099 77.456 37.6392C76.2244 38.1924 74.9928 38.812 73.6513 39.0996C73.5414 39.1217 73.4314 39.1439 73.3434 39.166C73.5194 39.166 73.6733 39.166 73.8493 39.1439C75.2787 39.0111 76.6423 38.5022 78.0058 38.0596Z" fill="#575756"/>
<path d="M88.54 27.4608C89.5296 26.6863 89.2437 25.4693 88.452 24.6949C88.8918 25.5578 89.1777 26.6421 88.474 27.4608C88.452 27.4829 88.43 27.505 88.408 27.5272C88.43 27.5272 88.496 27.4829 88.54 27.4608Z" fill="#575756"/>
<path d="M84.3175 33.3023C85.4171 32.8819 86.2088 32.2845 85.2411 31.333C84.6473 30.8241 83.8336 30.6471 83.1299 30.293C83.8336 30.9347 85.0212 31.333 85.2191 32.1074C85.2191 32.2181 85.2411 32.2845 85.1532 32.3951C84.7793 32.8155 83.9216 33.2802 83.2838 33.6121C83.6357 33.5457 83.9656 33.4351 84.3175 33.3023Z" fill="#575756"/>
<path d="M74.553 35.6478C75.6087 35.4487 76.5763 34.984 77.522 34.4751C78.2917 34.0546 79.0394 33.6121 79.6992 33.0589C80.117 32.7049 80.5569 32.2624 80.5789 31.7313C80.5789 31.4437 80.3809 31.156 80.051 31.0675C79.9851 31.0454 79.9191 31.0454 79.8531 31.0454C80.0511 30.9569 80.227 30.8683 80.4029 30.7577C80.9747 30.3152 81.1287 29.9169 81.0187 29.5629C81.6345 29.8062 82.2722 30.0496 82.91 30.2267C83.7677 30.4479 84.7793 30.6471 85.615 30.2709C86.6707 29.6514 85.5491 29.0761 84.8013 28.9212C85.3291 29.2088 86.2308 29.7399 85.3291 29.9833C84.1856 30.1824 82.7121 29.762 81.3926 29.585C81.2606 29.5628 81.1067 29.5407 80.9967 29.5186C80.6448 28.6999 78.8415 28.2131 77.7859 28.5893C78.4456 28.5229 79.0394 28.722 79.6112 28.9875C80.095 29.1867 80.4909 29.4743 80.5129 29.8062C80.5129 30.3373 79.7432 30.802 79.0614 31.1339C78.5776 31.1781 78.0938 31.2003 77.5879 31.2003C75.2348 31.2888 72.5738 30.8462 69.9787 30.4479C71.848 31.0011 73.7173 31.5764 75.6966 31.8198C76.9942 31.9747 78.3137 32.0411 79.6112 31.8862C79.2593 32.6385 77.5879 33.8334 76.2904 34.6742C75.7186 35.0504 75.1248 35.3823 74.4431 35.6257C74.3331 35.6921 74.4871 35.6699 74.553 35.6478Z" fill="#575756"/>
<path d="M71.1002 36.2673C71.5181 35.338 70.1766 33.767 69.3629 33.2802C68.7911 32.9262 68.1313 33.1474 67.4936 33.3466C68.5052 32.8155 69.5168 32.0632 69.6268 31.0454C69.5168 30.2488 68.945 29.5628 68.4612 28.899C66.9877 27.0625 64.3487 28.191 62.8972 29.5186C64.0628 28.7663 65.6682 28.1246 66.8998 28.4786C67.7575 28.6999 68.4612 30.0275 68.901 30.7135C69.5608 31.7977 67.3836 33.1474 66.0861 34.0325C66.4159 33.8776 66.8338 33.7006 67.2956 33.4793C67.8674 33.3908 68.5272 33.2359 68.989 33.4351C69.4289 33.6785 69.7587 34.121 70.0446 34.5636C70.2645 34.9176 70.6164 35.515 70.6164 35.8912C70.6824 36.2452 69.7587 36.9533 68.7911 37.2631C68.0653 37.4622 67.2297 37.5286 66.4599 37.595C68.0214 37.772 70.1986 37.7499 71.1002 36.2673Z" fill="#575756"/>
<path d="M60.6761 30.9347C59.4885 31.7313 57.8831 31.6206 56.4756 31.7091C57.8391 32.0632 59.9283 32.0189 60.6761 30.9347Z" fill="#575756"/>
<path d="M61.7756 9.16165C63.0951 8.12168 64.9645 6.68342 66.7458 6.28513C68.5932 5.90897 71.3861 6.24088 73.3874 7.05958C75.9165 7.87828 78.4016 8.40933 80.8867 9.20591C78.5775 8.16594 76.1364 7.36936 73.7393 6.46215C71.694 5.57707 69.3189 5.20091 67.0317 5.46643C64.3927 5.84259 62.3034 7.67914 60.632 9.42718C59.7743 10.3344 58.5428 11.8612 58.1249 12.6135C59.2245 11.3744 60.4781 10.2459 61.7756 9.16165Z" fill="#575756"/>
<path d="M81.5025 14.7819C82.6461 14.273 81.9644 12.6135 81.3486 11.9718C80.6888 11.2195 79.6552 10.622 78.7535 10.1574C79.3913 10.0467 80.0071 9.80334 80.4689 9.31654C79.2593 10.268 77.6099 9.89185 76.2024 9.69271C74.575 9.40505 72.9036 8.98464 71.7161 8.63061C71.0123 8.43146 70.3086 8.23232 69.6268 8.01105C69.9127 8.14381 70.1766 8.27657 70.4625 8.40933C72.3758 9.27229 74.3771 10.0246 76.5543 10.1795C77.2141 10.2459 77.9618 10.2901 78.6436 10.1795C79.4353 10.7991 80.205 11.4186 80.7768 12.2152C81.2166 12.7684 81.4146 13.7641 81.2166 14.0517C80.7328 13.9632 80.271 13.2109 79.7212 12.3701C79.1274 11.485 77.6319 11.308 76.8402 11.8169C76.0705 12.2152 75.1468 11.7063 74.663 11.0646C75.0369 11.7727 75.8506 12.4365 76.8182 12.2373C77.434 12.0824 77.5 11.9939 78.0058 12.0824C78.5996 12.2152 78.7095 12.2594 79.0834 12.7684C79.3253 13.2773 80.161 15.136 81.5025 14.7819Z" fill="#575756"/>
<path d="M57.7951 15.313C60.0603 14.273 62.2155 13.9632 64.7666 13.8305C65.7562 13.7862 66.8118 14.0296 68.0214 13.8968C69.3629 13.6756 70.6604 13.1224 70.4185 11.7284C70.7264 11.7726 71.0343 11.8169 71.3642 11.8169C72.7497 11.8833 74.4431 11.6399 75.2348 10.4893C74.531 11.2858 73.0356 11.4629 72.1339 11.4186C70.1326 11.3744 68.6591 10.622 66.7458 10.0689C66.1301 9.89184 65.4703 9.6927 64.8545 9.55994C65.2284 9.71483 65.5803 9.86972 65.9321 10.0246C67.3836 10.622 68.7911 11.4629 70.3965 11.7284C70.4185 13.056 69.2089 13.3879 67.9334 13.4764C66.9438 13.4764 65.9321 13.1888 64.8985 13.1666C62.3035 13.1224 59.6864 13.7862 57.5532 15.136C57.0034 15.4679 56.4096 15.844 55.8818 16.1981C56.5635 15.8883 57.1133 15.6228 57.7951 15.313Z" fill="#575756"/>
<path d="M58.7407 20.9554C59.1586 20.1588 59.5544 19.318 59.5325 18.455C59.4665 17.5921 59.2466 16.6628 58.5648 15.9989C58.3889 15.8219 58.147 15.6449 57.971 15.5121C58.2789 15.8662 58.5648 16.2202 58.7187 16.6628C59.2246 18.3887 58.7187 19.4065 58.015 20.889C57.4872 22.1281 56.8714 23.2345 55.3979 23.8319C57.0474 23.5 58.103 22.2388 58.7407 20.9554Z" fill="#575756"/>
<path d="M66.5479 24.7391C66.262 23.8097 64.9645 23.5221 64.1068 23.0796C63.0951 22.6813 62.0835 22.2387 60.9619 22.106C59.9943 21.9953 59.0046 22.1281 58.059 22.3272C59.0706 22.3272 59.9943 22.3272 61.0059 22.5928C61.7536 22.7919 62.7872 23.3008 63.579 23.677C64.5466 24.1638 65.7342 24.5621 65.8002 24.9382C66.262 25.6242 64.1288 27.5935 63.491 28.4564C64.5466 27.5492 66.9218 26.1773 66.5479 24.7391Z" fill="#575756"/>
<path d="M75.3887 28.6556C76.5103 26.974 76.8402 25.6021 76.4443 24.2524C76.6202 24.0753 76.8182 23.8983 76.9721 23.6992C77.4339 23.2345 77.7858 22.7256 78.0497 22.1724C80.5788 21.8405 83.3058 21.8626 85.571 20.712C86.0328 20.4465 86.4287 19.8269 86.0548 19.3844C85.8129 19.0967 85.3951 19.0525 85.0432 18.9419C84.9992 18.9197 84.9332 18.9197 84.8892 18.8976C84.9552 18.8755 85.0432 18.8533 85.1092 18.8091C85.637 18.5878 86.1868 18.3444 86.5166 17.8798C86.6266 17.747 86.6926 17.5921 86.7806 17.4372C87.0005 17.5257 87.1764 17.6142 87.3304 17.7027C87.8362 18.0125 88.364 18.3002 88.6279 18.7206C88.8038 19.0746 88.4959 20.2695 88.0341 20.712C87.2424 21.4865 85.527 22.1724 84.3394 22.7477C85.3071 22.4822 86.5166 22.2609 87.4843 21.7962C88.6719 22.1503 89.8594 22.5707 89.3096 23.3673C88.8698 24.2524 86.9125 24.4736 85.461 24.6728C86.8685 24.7834 88.9138 24.9162 89.7935 23.7213C90.6731 22.3273 89.1117 21.8405 87.7262 21.6635C88.276 21.3758 88.7378 20.9775 89.0237 20.4686C89.2876 19.8048 89.5516 18.8976 88.9798 18.3223C88.5839 17.9461 88.0341 17.7027 87.4843 17.5036C87.2644 17.4151 87.0445 17.3487 86.8245 17.3045C87.0884 16.707 87.1104 16.0653 86.8685 15.4679C86.2747 13.8305 84.6913 12.6799 83.1519 11.7284C82.2062 11.1753 81.2825 10.5557 80.2049 10.2017C81.6784 11.0425 82.9539 12.1488 84.2295 13.2109C85.3291 14.2509 86.7146 15.8441 86.2527 17.2381C86.1868 17.2381 86.0988 17.2381 86.0328 17.2381C86.0988 17.2381 86.1648 17.2602 86.2527 17.2823C86.1208 17.6585 85.8789 18.0125 85.461 18.3223C85.2191 18.4993 84.9332 18.6763 84.6693 18.8312C83.5037 18.5878 82.3162 18.3223 81.1286 18.1895C82.0743 18.4551 83.1519 18.787 84.1415 19.1189C84.0975 19.141 84.0755 19.1631 84.0316 19.1631C84.0755 19.141 84.1195 19.141 84.1635 19.1189C84.6033 19.2738 85.0212 19.4065 85.3731 19.5393C85.3951 19.5614 85.439 19.5835 85.483 19.6057C85.505 19.6278 85.527 19.6499 85.549 19.6721C85.483 19.8712 85.571 19.7384 85.3511 19.9818C83.8556 20.8005 80.5128 21.2652 78.1157 21.9954C78.2696 21.6635 78.4016 21.3095 78.4896 20.9554C78.9074 19.6278 78.9514 18.1895 78.4896 16.884C78.0277 15.4237 76.7082 14.2952 75.3227 13.4765C77.0381 14.8926 78.0057 16.53 77.9837 18.4772C78.0497 19.4287 77.9618 20.004 77.7858 21.0218C77.6539 21.6635 77.5439 22.3052 77.214 22.8805C76.9721 23.3009 76.7302 23.7213 76.4663 24.1417C76.1804 23.2345 75.5866 22.3494 74.6849 21.3758C76.2464 24.0753 76.3783 25.6242 75.3227 28.5229C75.2567 28.722 75.1908 28.8769 75.1248 29.0539C75.1688 28.9433 75.2787 28.8105 75.3887 28.6556Z" fill="#575756"/>
<path d="M87.9902 26.8633C87.1545 25.934 85.9229 25.3587 84.8453 24.6949C83.02 23.6328 80.9747 22.8362 78.7755 22.5264C81.2606 23.2124 83.1739 24.363 85.1092 25.6906C85.8569 26.2217 86.9126 26.8855 87.2864 27.3501C87.5063 27.6599 87.5723 27.7484 87.5723 28.1688C87.5723 28.191 87.5723 28.191 87.5723 28.2131C87.5723 28.2352 87.5503 28.2352 87.5503 28.2573C87.0665 28.8105 85.8789 28.6778 84.5594 28.3237C83.7457 28.1246 82.5142 27.7484 81.9644 27.6378C83.1739 28.191 84.3615 28.7884 85.681 29.1424C87.5943 29.6071 89.2437 28.5671 87.9902 26.8633Z" fill="#575756"/>
<path d="M59.9943 18.5878C62.6773 18.8091 65.8661 18.9197 68.3293 18.8533C65.6242 18.2559 62.7653 18.3001 59.9943 18.5878Z" fill="#575756"/>
<path d="M66.6139 15.9104C66.7458 15.9104 66.8778 15.9104 67.0097 15.8883C66.9218 15.8662 66.8338 15.844 66.7458 15.844C65.8002 15.7113 64.8105 15.667 63.8649 15.8219C62.6333 16.0874 61.4897 16.6406 60.4121 17.2602C62.5014 16.6627 64.4366 16.0211 66.6139 15.9104Z" fill="#575756"/>
<path d="M74.663 20.8226C75.3887 20.535 75.1688 19.7826 74.663 19.4286C74.0692 18.9861 73.2995 18.7427 72.5737 18.455C73.7613 18.4329 74.9929 18.0346 75.8066 17.2159C76.7962 15.9325 75.8945 14.4058 74.707 13.5649C73.8053 12.8569 72.7937 12.2152 71.6061 11.9496C72.6837 12.4143 73.6734 13.2773 74.2671 13.8747C74.773 14.3615 75.5647 15.313 75.4987 16.0874C75.6306 17.0831 74.0692 18.101 72.4858 18.4329C72.4638 18.4108 72.4198 18.4108 72.3978 18.3886C71.3202 18.0125 70.4405 17.7027 69.2969 17.4372C70.7044 18.0125 72.6177 18.9861 73.6514 19.5392C74.0472 19.7826 74.1792 19.8711 74.3551 20.1367C74.3551 20.1588 74.3771 20.1809 74.3771 20.203C74.3771 20.203 74.3551 20.203 74.3551 20.2252C74.3551 20.2252 74.3551 20.2252 74.3331 20.2252C74.2891 20.2252 74.2231 20.2473 74.1792 20.2473C73.4534 20.2694 72.0239 19.9818 71.0123 19.7826C70.5285 19.672 70.0447 19.5614 69.5828 19.4065C69.6268 19.4286 69.6488 19.4507 69.6928 19.4507C70.4845 19.8933 71.3422 20.2252 72.2439 20.4907C73.0136 20.6898 73.8493 21.0218 74.663 20.8226Z" fill="#575756"/>
<path d="M74.8169 24.4294C75.5207 23.7877 75.4107 22.8141 74.7509 22.2166C73.7613 21.3537 72.3538 21.0218 71.1662 20.4022C72.0679 21.0439 73.3654 21.6856 74.0912 22.3494C74.8609 23.2124 74.597 23.7877 73.8493 24.186C72.9036 24.6506 70.9463 24.7834 69.5168 24.54C68.9011 24.4515 68.2633 24.363 67.6475 24.2523C67.7355 24.2966 67.8454 24.3187 67.9334 24.363C69.9347 25.1153 72.9696 25.8897 74.8169 24.4294Z" fill="#575756"/>
<path d="M77.1481 29.0317C77.8958 28.545 78.8415 27.505 78.1597 26.7084C77.7419 26.288 76.9502 26.2659 76.4443 26.5756C76.9721 26.3986 77.6759 26.5314 77.9398 26.9297C78.1597 27.3501 77.8298 27.9475 77.5 28.4122C77.258 28.722 76.9062 29.076 76.6203 29.3637C76.7742 29.2751 76.9721 29.1645 77.1481 29.0317Z" fill="#575756"/>
<path d="M70.1106 29.0981C71.1003 28.899 72.0899 28.545 72.8156 27.8812C73.3215 27.4386 73.7393 26.9076 74.0252 26.3544C74.0032 25.9782 73.4094 26.642 73.2555 26.7084C73.3874 26.642 73.5194 26.5757 73.6513 26.5093C72.6397 27.5714 71.4521 28.3901 70.0226 28.899C69.7368 29.0096 69.4069 29.1424 69.121 29.253C69.4509 29.2088 69.7807 29.1645 70.1106 29.0981Z" fill="#575756"/>
<path d="M39.6737 14.8483C38.75 15.6449 37.9363 16.53 37.1006 17.3929C36.4628 18.0567 35.7371 18.6984 35.2093 19.4286C34.4396 20.4243 34.1976 21.6192 33.9777 22.7919C33.8238 23.6328 33.6259 24.4515 33.5599 25.2923C34.1537 23.7877 34.8134 21.7962 35.4292 20.6235C36.001 19.672 36.8147 18.8754 37.5404 18.0125C38.2882 17.1053 38.9479 16.1317 39.6517 15.2023C39.8716 14.9147 40.1355 14.5385 40.2894 14.273C40.0695 14.45 39.8716 14.6492 39.6737 14.8483Z" fill="#575756"/>
<path d="M44.4239 12.1709C44.0281 12.3037 40.7293 13.4322 41.9168 13.8969C42.7525 13.9854 43.8741 14.1624 44.5559 14.4279C44.336 14.5828 44.0061 14.8041 43.8082 14.959C43.4123 15.2024 41.8509 16.0211 41.0372 16.4415C40.7513 16.5964 40.4214 16.707 40.1795 16.9061C39.9815 17.1053 40.0695 17.4593 40.3554 17.5478C40.6853 17.6806 41.0592 17.5036 41.389 17.4372C42.0268 17.2602 42.5106 17.1717 42.9725 16.9946C42.9945 16.9946 43.0384 16.9725 43.0824 16.9504C43.0824 16.9504 43.1264 16.9283 43.1704 16.9061C43.5443 17.4593 43.5003 18.101 43.1704 18.4108C42.3127 19.1188 41.455 19.5835 40.2894 20.1809C38.75 20.889 36.9906 21.2873 35.7151 22.3494C36.9466 21.6413 38.3101 21.4422 39.7396 21.0439C40.8832 20.7341 41.9388 20.2252 42.9505 19.6499C43.3903 19.4065 43.8302 19.141 44.116 18.7427C44.7978 17.6585 44.248 16.707 43.7642 16.353C43.6982 16.3087 43.6542 16.2866 43.5882 16.2645C43.5662 16.2645 43.5443 16.2423 43.5223 16.2423C43.4563 16.2202 43.4123 16.2202 43.3463 16.2202C43.9841 15.8662 44.5779 15.49 45.1277 15.0253C45.5895 14.7377 45.8094 14.2288 45.2596 13.8747C44.8418 13.6313 44.358 13.6092 43.8741 13.5428C43.4123 13.4764 42.9505 13.4322 42.4886 13.4101C42.8405 13.1224 43.1704 12.9233 43.5662 12.6799C43.9621 12.4586 44.38 12.2373 44.7758 12.0161C44.6439 12.0824 44.5339 12.1267 44.4239 12.1709Z" fill="#575756"/>
<path d="M44.3799 4.07241C43.7642 4.51495 43.2144 5.00175 42.6866 5.5328C42.7745 5.26727 42.7965 4.97962 42.6426 4.73622C42.0708 4.02816 41.1911 4.82473 40.7293 5.22302C40.0475 5.82045 39.3878 6.41788 38.75 7.03744C37.6504 8.03316 36.8587 9.27227 36.7267 10.6663C36.6607 11.1531 36.5508 11.7063 36.9686 12.1267C36.7927 11.8611 36.7267 11.5735 36.8367 11.2858C36.9466 10.8433 37.0786 10.3786 37.2765 9.95821C37.7603 8.82973 38.5301 8.18805 39.5417 7.34722C40.1135 6.90468 40.9712 6.15236 41.565 5.68769C41.543 5.7762 41.499 5.84258 41.455 5.93108C40.9712 7.05957 40.6193 7.74551 40.0475 8.67484C39.7836 9.25015 37.9143 11.8611 39.2338 11.9497C39.6736 11.9718 39.7836 11.5514 39.9156 11.2637C39.9815 11.0867 40.3994 10.2016 40.2894 10.4008C41.1911 8.60846 42.6866 6.68341 43.9401 5.51067C44.6219 4.91324 45.4576 4.31581 45.9194 4.13879C45.9194 4.16092 45.9194 4.18305 45.9414 4.20517C45.9414 4.24943 45.9414 4.27155 45.9414 4.31581V4.33793C45.8974 4.55921 45.7874 4.7141 45.7874 4.91324C45.7874 5.35578 46.3152 5.5328 46.7331 5.44429C47.3269 5.40003 47.6788 5.31153 48.0526 5.31153C48.0306 5.62131 47.7007 6.17448 47.2389 6.81617C45.6995 9.00675 43.7422 11.0203 41.9388 12.879C42.0708 12.7905 42.2247 12.702 42.3567 12.5913C43.4563 11.7505 44.5779 10.8876 45.5895 9.95821C46.5132 9.84758 47.4148 9.67056 48.3385 9.51567C49.0862 9.40504 49.2402 9.60418 49.1742 9.71482C48.5584 10.5999 46.4032 12.2594 45.4136 13.6534C46.7991 12.525 48.4265 11.6177 49.658 10.3344C50.1419 9.84758 49.9879 9.07313 49.2182 8.91824C48.5804 8.78548 47.9646 9.02888 47.3709 9.20589C46.7771 9.40504 46.3812 9.5378 45.8314 9.71482C46.5572 9.051 47.2169 8.34294 47.8327 7.56849C48.3825 6.77191 49.3282 5.84258 48.9763 4.84686C48.6024 4.16092 47.6128 4.49282 46.953 4.53708C47.063 4.05028 46.931 3.45285 46.3592 3.25371C45.5675 3.1652 44.9297 3.7405 44.3799 4.07241Z" fill="#575756"/>
<path d="M26.3025 19.7605C25.1149 18.1674 24.2792 16.4193 23.4655 14.6492C23.1796 13.919 22.8937 13.2109 22.6738 12.4586C22.6078 12.4586 22.5638 12.4807 22.5419 12.4807C21.6402 12.6356 21.3323 13.1224 21.7281 13.8747C22.08 14.6492 22.6518 15.2908 23.1136 15.844C23.5095 16.3529 23.9054 16.5742 23.9933 16.9946C23.9933 17.3265 23.5975 17.4593 23.2896 17.3708H23.2676C23.2456 17.3708 23.2456 17.3708 23.2456 17.3929C23.2456 17.3929 23.2236 17.3929 23.2236 17.415C23.2236 17.4372 23.2016 17.4372 23.2016 17.4593V17.4814C23.2016 17.5257 23.2016 17.5699 23.2016 17.6142C23.2016 17.6363 23.2016 17.6584 23.2016 17.6806C23.7074 19.1631 25.0709 20.712 26.7423 21.9511C27.3801 22.46 28.3697 23.1238 29.3814 23.3008C28.2598 23.2787 27.2481 22.7919 26.3465 22.2609C24.5651 21.243 22.9377 19.7605 22.2999 17.924C22.146 17.415 22.3659 16.9061 22.8277 16.6849C22.7178 16.53 22.5858 16.3751 22.4759 16.2202C21.9481 15.4236 20.6285 13.5428 21.5522 12.7684C21.8601 12.5028 22.2999 12.4586 22.6958 12.4586C22.5638 12.016 22.4319 11.5956 22.3219 11.1531C21.9921 9.93609 21.8161 8.51996 22.8058 7.52424C23.0697 7.21446 23.3776 6.94894 23.7074 6.68341C23.7734 6.21874 23.8394 5.7762 23.8834 5.31153C23.9713 4.80261 24.0593 4.29369 24.1913 3.80689C24.2132 3.78476 24.2132 3.74051 24.2352 3.71838C24.2352 3.74051 24.2132 3.76264 24.2352 3.74051C24.2572 3.69625 24.2792 3.652 24.2792 3.60775C24.2792 3.58562 24.2792 3.56349 24.2792 3.54137C24.3012 3.51924 24.3232 3.47498 24.3232 3.43073C24.3232 3.43073 24.3232 3.43073 24.3232 3.4086C24.3232 3.38648 24.3452 3.36435 24.3452 3.34222C24.3452 3.34222 24.3452 3.34222 24.3452 3.32009C24.3452 3.29797 24.3672 3.29797 24.3672 3.27584V3.25371C24.3892 3.23159 24.4112 3.20946 24.4112 3.1652C24.4112 3.14308 24.4332 3.14308 24.4332 3.12095C24.4332 3.12095 24.4552 3.12095 24.4552 3.09882C24.4772 3.09882 24.4772 3.0767 24.4991 3.05457H24.5211C24.5431 3.05457 24.5431 3.05457 24.5651 3.05457C24.5871 3.05457 24.6091 3.03244 24.6311 3.03244C24.6091 3.03244 24.6091 3.03244 24.6091 3.03244C24.6311 3.03244 24.6531 3.03244 24.6971 3.01031C24.7191 3.01031 24.7191 3.01031 24.7411 3.01031C24.763 3.01031 24.763 3.01031 24.785 3.01031H24.807C24.829 3.01031 24.873 3.01031 24.895 3.01031C24.917 3.01031 24.939 3.01031 24.961 3.01031C25.2909 3.14308 25.4008 3.47498 25.5108 3.74051C26.1485 5.26728 26.3025 6.88255 26.4125 8.49783C26.4125 8.58634 26.4784 9.07314 26.4125 8.80761C25.9286 7.30297 25.4448 5.5328 24.851 4.27156C24.5871 5.17877 24.3892 6.08598 24.1253 6.99319C23.8834 7.87827 23.6195 8.78548 23.7294 9.71482C23.3995 8.74123 23.4655 7.72338 23.5975 6.70554C23.3336 7.01532 23.0697 7.36935 22.8497 7.72338C22.2779 8.65272 22.4759 9.49355 22.7838 10.4229C23.0917 11.308 23.4435 12.1931 23.7954 13.0781C25.3348 17.1274 28.1058 21.3537 31.2507 24.717C29.3814 23.3008 27.754 21.5749 26.3025 19.7605Z" fill="#575756"/>
<path d="M29.7772 12.6356C30.7449 14.4943 31.0747 16.6628 31.3826 18.7427C31.6465 20.4686 32.0864 22.1503 32.5482 23.8541C32.4383 21.4422 32.3943 18.9861 31.8225 16.6185C31.4926 15.4236 30.9868 14.273 30.2391 13.2331C30.0851 12.9897 29.8872 12.7463 29.7112 12.5471C29.7332 12.5471 29.7552 12.5914 29.7772 12.6356Z" fill="#575756"/>
<path d="M27.4681 12.016C27.578 12.0824 27.7759 12.2152 27.8199 12.2594C28.2158 12.5913 28.6116 12.9232 28.8316 13.3215C29.1175 13.919 29.0515 14.4279 29.1394 15.1802C29.2494 16.3751 29.3594 17.5478 29.4913 18.7427C29.6013 19.4729 29.5793 20.2694 30.0851 20.9111C29.7992 20.203 29.9751 19.4729 29.9971 18.7427C30.0631 17.6806 30.0631 16.5963 29.9312 15.5342C29.6893 13.7641 29.5573 12.7683 27.49 11.9939C27.4461 11.9718 27.3801 11.9718 27.3581 11.9496C27.3801 11.9718 27.4241 11.9718 27.4681 12.016Z" fill="#575756"/>
<path d="M24.4771 8.32082C25.1149 8.87399 25.7087 9.49355 26.1045 10.2237C26.3245 10.7105 26.3465 11.3965 26.4124 12.0824C26.6324 13.6977 26.9402 15.3794 27.732 16.884C27.3581 15.136 27.3581 13.1003 27.0942 11.5292C27.0062 10.8876 26.8743 10.2237 26.4124 9.71482C25.8626 9.11739 25.1809 8.56421 24.4112 8.21018C24.3232 8.18805 24.2572 8.1438 24.1693 8.1438C24.2792 8.1438 24.3892 8.25443 24.4771 8.32082Z" fill="#575756"/>
<path d="M34.9234 9.89183C34.4836 10.2459 34.2416 10.7548 33.9777 11.2416C33.6259 11.9275 33.296 12.6356 33.0761 13.3658C32.8561 14.2066 32.4383 15.1138 32.5483 15.9768C32.5483 15.6449 32.6802 15.3572 32.8122 15.0696C33.0101 14.627 33.34 13.9632 33.4719 13.6977C33.8898 12.9454 34.4836 11.8169 35.0773 11.0424C35.2093 12.2373 35.3193 13.8968 35.4732 15.2023C35.5832 16.0874 35.6051 17.0167 35.8251 17.8576C35.8251 17.7027 35.8251 17.5478 35.8251 17.3929C35.979 15.6449 36.111 13.919 36.023 12.1709C35.957 11.5071 36.133 10.6441 35.7591 10.0467C35.6052 9.73694 35.1653 9.67056 34.9234 9.89183Z" fill="#575756"/>
<path d="M16.516 47.8176C16.9339 46.667 17.2198 45.4943 17.5496 44.3437C17.7916 43.4365 18.0994 42.5514 18.2314 41.6442C18.4073 40.405 18.0555 39.2323 17.6816 38.1038C17.4177 37.3073 17.1758 36.4886 16.8239 35.7141C17.0218 37.3294 17.4177 39.3872 17.4617 40.6927C17.4397 41.7991 17.0878 42.9054 16.8679 44.0118C16.648 45.1845 16.56 46.3351 16.3841 47.5078C16.3401 47.8619 16.2741 48.3265 16.2741 48.6363C16.3401 48.3487 16.4281 48.0831 16.516 47.8176Z" fill="#575756"/>
<path d="M13.6571 52.4864C13.943 52.1767 16.2961 49.5878 15.0206 49.7427C14.2509 50.0746 13.1733 50.4729 12.4695 50.5835C12.5795 50.3401 12.7554 49.9861 12.8654 49.7648C13.0853 49.3665 14.0749 47.8619 14.5808 47.1096C14.7567 46.844 14.9986 46.5785 15.1086 46.2909C15.1965 46.0253 14.9326 45.7598 14.6467 45.8041C14.2949 45.8483 14.053 46.2024 13.811 46.4015C13.3492 46.844 12.9534 47.1981 12.6455 47.5742C12.6235 47.5964 12.6015 47.6185 12.5795 47.6627C12.5795 47.6627 12.5355 47.707 12.5135 47.7291C11.9197 47.4193 11.6558 46.844 11.7878 46.4015C12.2056 45.3615 12.7114 44.5428 13.4592 43.4365C14.4488 42.0646 15.8123 40.8697 16.4061 39.2987C15.6584 40.5378 14.5808 41.3565 13.5251 42.4186C12.6675 43.2373 12.0077 44.2109 11.3919 45.2066C11.128 45.6271 10.8641 46.0917 10.8201 46.5564C10.7541 47.8176 11.6778 48.3929 12.2716 48.4814C12.3376 48.4814 12.4035 48.4814 12.4695 48.4593C12.4915 48.4593 12.5135 48.4593 12.5575 48.4372C12.6235 48.4151 12.6675 48.3929 12.7114 48.3708C12.3376 48.9904 11.9857 49.6321 11.7218 50.2737C11.4579 50.7605 11.5239 51.3137 12.1616 51.3358C12.6235 51.3358 13.0853 51.1146 13.5251 50.9597C13.965 50.7827 14.3828 50.6056 14.8007 50.3844C14.6247 50.8048 14.4488 51.1367 14.2069 51.5571C13.965 51.9554 13.7011 52.3537 13.4592 52.7298C13.5032 52.6635 13.5691 52.575 13.6571 52.4864Z" fill="#575756"/>
<path d="M17.6156 59.5229C17.9455 58.8369 18.1874 58.1289 18.3854 57.4208C18.4513 57.7084 18.5613 57.9518 18.8032 58.1067C19.6389 58.4608 20.0128 57.3102 20.2327 56.7348C20.5406 55.894 20.8265 55.0311 21.0684 54.1681C21.5522 52.7741 21.6402 51.2916 21.0684 50.0082C20.8925 49.5435 20.7165 49.0125 20.1447 48.8576C20.4306 49.0125 20.6286 49.2116 20.6725 49.5214C20.7825 49.964 20.8925 50.4286 20.9364 50.8933C21.0684 52.1103 20.6945 53.0618 20.2107 54.2787C19.9248 54.9647 19.529 56.0268 19.2431 56.7127C19.2431 56.6242 19.2211 56.5357 19.2211 56.4472C19.0891 55.2302 19.0671 54.4558 19.1111 53.3494C19.0671 52.7298 19.441 49.5214 18.2314 50.0967C17.8356 50.2959 17.9235 50.7163 17.9675 51.0261C18.0115 51.2031 18.0555 52.1988 18.0555 51.9554C18.1435 53.969 17.7476 56.3808 17.2418 58.0182C16.9339 58.859 16.4941 59.7884 16.1642 60.1645C16.1422 60.1424 16.1422 60.1424 16.1202 60.1203C16.0982 60.0982 16.0762 60.0539 16.0762 60.0318V60.0097C16.0102 59.7884 16.0322 59.5892 15.9443 59.4343C15.7463 59.0582 15.1965 59.1467 14.8666 59.4343C14.3828 59.7663 14.0969 60.0318 13.789 60.2088C13.6571 59.9211 13.6791 59.2795 13.767 58.505C14.0529 55.8498 14.8007 53.1281 15.4824 50.6278C15.3945 50.7827 15.3285 50.9376 15.2625 51.0703C14.6907 52.3537 14.1629 53.6371 13.7011 54.9426C12.9533 55.4957 12.2496 56.0932 11.5019 56.6685C10.8861 57.1331 10.6662 57.0225 10.6662 56.8897C10.7761 55.8055 11.8757 53.3051 12.0517 51.6014C11.3919 53.2609 10.4242 54.854 9.94042 56.58C9.76449 57.2438 10.2483 57.8412 11.018 57.5978C11.6338 57.3987 12.0517 56.8897 12.4915 56.4472C12.9094 56.0046 13.1952 55.6727 13.5911 55.2523C13.2832 56.1817 13.0413 57.1331 12.8874 58.1067C12.7774 59.0803 12.4255 60.3416 13.2172 61.0275C13.877 61.4258 14.5807 60.6735 15.1305 60.2973C15.2845 60.7841 15.6584 61.2266 16.2521 61.116C17.0219 60.9169 17.2858 60.0982 17.6156 59.5229Z" fill="#575756"/>
<path d="M25.8187 36.9975C27.622 37.7941 29.2054 38.9226 30.7669 40.0732C31.3606 40.56 31.9544 41.0689 32.5262 41.5999C32.5702 41.5557 32.6142 41.5336 32.6362 41.5114C33.3399 40.9361 33.3839 40.3608 32.6802 39.8961C31.9984 39.4094 31.1847 39.0996 30.503 38.8562C29.9312 38.6128 29.4473 38.6128 29.1834 38.2587C29.0295 37.9711 29.2934 37.6613 29.6233 37.5949L29.6453 37.5728L29.6673 37.5507V37.5286C29.6673 37.5064 29.6673 37.5064 29.6673 37.4843V37.4622C29.6453 37.4179 29.6233 37.3958 29.6013 37.3515C29.6013 37.3294 29.5793 37.3294 29.5573 37.3073C28.3917 36.2673 26.4564 35.5814 24.4112 35.2937C23.5975 35.161 22.4319 35.0503 21.4422 35.4044C22.4319 34.8733 23.5315 34.8069 24.6091 34.829C26.6763 34.8512 28.8096 35.338 30.2391 36.6213C30.6129 36.9754 30.6789 37.5507 30.371 37.949C30.5469 38.0375 30.7229 38.1039 30.8988 38.1924C31.7345 38.6349 33.8018 39.6306 33.3839 40.7591C33.252 41.1353 32.8781 41.3787 32.5262 41.5778C32.8561 41.8876 33.186 42.1974 33.4939 42.5293C34.3736 43.4365 35.2093 44.5871 34.8354 45.9368C34.7474 46.3351 34.6155 46.7334 34.4615 47.1096C34.6375 47.53 34.7914 47.9725 34.9673 48.3929C35.1433 48.8797 35.2972 49.3665 35.4292 49.8755C35.4292 49.8976 35.4292 49.9418 35.4292 49.964C35.4292 49.9418 35.4292 49.9197 35.4292 49.9418C35.4292 49.9861 35.4292 50.0304 35.4512 50.0746C35.4512 50.0967 35.4732 50.1189 35.4732 50.141C35.4732 50.1852 35.4732 50.2074 35.4732 50.2516C35.4732 50.2516 35.4732 50.2516 35.4732 50.2738C35.4732 50.2959 35.4732 50.318 35.4732 50.3401C35.4732 50.3401 35.4732 50.3401 35.4732 50.3623C35.4732 50.3844 35.4732 50.3844 35.4732 50.4065C35.4732 50.4065 35.4732 50.4065 35.4732 50.4286V50.4508C35.4732 50.495 35.4732 50.5172 35.4732 50.5393C35.4732 50.5614 35.4732 50.5614 35.4732 50.5835V50.6057C35.4732 50.6278 35.4512 50.6499 35.4512 50.6499V50.672C35.4512 50.672 35.4512 50.672 35.4512 50.6942C35.4512 50.6942 35.4292 50.7163 35.4072 50.7163C35.3852 50.7384 35.3852 50.7384 35.3632 50.7605C35.3632 50.7605 35.3632 50.7605 35.3852 50.7384C35.3632 50.7605 35.3412 50.7827 35.3192 50.7827C35.2972 50.7827 35.2972 50.7827 35.2752 50.8048C35.2532 50.8048 35.2532 50.8269 35.2312 50.8269H35.2093C35.1873 50.8269 35.1433 50.8491 35.1213 50.8712C35.0993 50.8712 35.0993 50.8933 35.0773 50.9154C34.7254 50.9597 34.4835 50.7163 34.2416 50.5393C32.9441 49.5214 32.0204 48.1717 31.1407 46.8219C31.0967 46.7334 30.8108 46.3573 30.9868 46.5564C32.1304 47.6406 33.4059 48.9461 34.5275 49.7648C34.3296 48.8576 34.0657 47.9504 33.8457 47.0432C33.6258 46.136 33.4279 45.2288 32.8781 44.4765C33.6478 45.1624 34.0657 46.0917 34.4395 47.0432C34.5055 46.6449 34.5935 46.2024 34.5935 45.782C34.6375 44.6756 34.0657 44.056 33.3619 43.3922C32.6582 42.7505 31.9324 42.1531 31.1847 41.5557C27.8859 38.7898 23.4215 36.4443 19.0451 35.0282C21.4202 35.4044 23.6854 36.1124 25.8187 36.9975Z" fill="#575756"/>
<path d="M26.2365 44.919C24.4991 43.7684 23.1576 42.0425 21.8821 40.3609C20.8265 38.989 19.6169 37.7277 18.4073 36.4665C19.6609 38.5243 20.8924 40.6485 22.5419 42.4408C23.3995 43.3038 24.4112 44.1003 25.5548 44.6314C25.8187 44.7641 26.1046 44.8748 26.3465 44.9854C26.3025 44.9633 26.2585 44.9412 26.2365 44.919Z" fill="#575756"/>
<path d="M28.5457 44.3216C28.4137 44.3216 28.1718 44.2995 28.1058 44.2774C27.6 44.1889 27.0942 44.0782 26.6983 43.8569C26.1485 43.4808 25.9726 42.994 25.5328 42.3966C24.873 41.4008 24.1912 40.4272 23.5095 39.4537C23.0697 38.8562 22.6738 38.1703 21.9481 37.8384C22.5418 38.303 22.7398 39.0554 23.0697 39.6971C23.5315 40.6706 24.0373 41.6 24.6751 42.4629C25.7527 43.9012 26.3465 44.6978 28.5237 44.3659C28.5677 44.3659 28.6336 44.3437 28.6556 44.3216C28.6556 44.3216 28.5897 44.3216 28.5457 44.3216Z" fill="#575756"/>
<path d="M32.9441 46.0918C32.1084 45.9369 31.2947 45.6714 30.6129 45.2288C30.1731 44.919 29.8432 44.3216 29.4254 43.7463C28.4357 42.4408 27.3581 41.1353 25.9506 40.1838C27.1162 41.5115 28.1058 43.3038 29.0955 44.5429C29.4693 45.0518 29.9312 45.5607 30.569 45.8041C31.3387 46.0696 32.1964 46.2024 33.0541 46.136C33.142 46.136 33.23 46.1139 33.296 46.0696C33.208 46.136 33.0541 46.1139 32.9441 46.0918Z" fill="#575756"/>
<path d="M23.0696 49.8312C23.2896 49.3001 23.2456 48.7248 23.2456 48.1938C23.2236 47.4193 23.1576 46.6449 23.0257 45.8926C22.8277 45.0518 22.7398 44.056 22.212 43.348C22.3659 43.6356 22.3879 43.9454 22.4099 44.2773C22.4539 44.7641 22.4978 45.4943 22.4978 45.8041C22.4978 46.667 22.5198 47.9504 22.3879 48.9019C21.7061 47.9283 20.8045 46.5343 20.0127 45.4722C19.5069 44.742 19.0231 43.9675 18.4293 43.3037C18.5173 43.4365 18.5833 43.5692 18.6492 43.7241C19.353 45.3173 20.0787 46.9104 21.0024 48.3929C21.3982 48.9461 21.6402 49.7869 22.2559 50.141C22.5418 50.2737 22.9377 50.141 23.0696 49.8312Z" fill="#575756"/>
</svg>
