<svg width="76" height="60" viewBox="0 0 76 60" fill="none" xmlns="http://www.w3.org/2000/svg">
<path d="M37.8344 45.0002L42.7763 40.0577L36.2997 33.5802L31.3578 38.5228V40.9091H35.4484V45.0002H37.8344ZM56.5827 14.3177C56.199 13.934 55.5596 13.976 55.1759 14.3597L40.2624 29.2753C39.8787 29.659 39.8367 30.2985 40.2204 30.6822C40.6041 31.066 41.2435 31.024 41.6272 30.6402L56.5407 15.7247C56.9244 15.341 56.9664 14.7015 56.5827 14.3177ZM59.9918 39.63V47.7264C59.9918 54.5016 54.4964 59.9998 47.7201 59.9998H12.2717C5.49736 59.9998 0 54.5036 0 47.7264V12.2731C0 5.49786 5.49545 -0.000244141 12.2717 -0.000244141H47.7201C49.4247 -0.000244141 51.1292 0.341478 52.7059 1.06501C53.0896 1.23492 53.3874 1.61864 53.4732 2.04436C53.5591 2.51399 53.4313 2.93972 53.0896 3.27953L51.0013 5.36805C50.6177 5.75177 50.1061 5.87967 49.6385 5.70977C48.999 5.53986 48.3596 5.45395 47.722 5.45395H12.2736C8.52472 5.45395 5.45727 8.52182 5.45727 12.2712V47.7245C5.45727 51.4739 8.52472 54.5417 12.2736 54.5417H47.722C51.4709 54.5417 54.5384 51.4739 54.5384 47.7245V42.3543C54.5384 42.0125 54.6663 41.6727 54.922 41.4169L57.6497 38.6889C58.0754 38.2631 58.6289 38.1772 59.1405 38.391C59.652 38.6049 59.9918 39.0726 59.9918 39.6262V39.63ZM55.9012 8.18201L68.173 20.4554L39.5409 49.0914H27.2692V36.818L55.9012 8.18201ZM74.8175 13.8061L70.8968 17.7273L58.6251 5.45395L62.5458 1.53273C64.1225 -0.0441526 66.7643 -0.0441526 68.3409 1.53273L74.8175 8.01019C76.3942 9.58708 76.3942 12.2292 74.8175 13.8061Z" fill="#AC8158"/>
</svg>
