<svg width="57" height="71" viewBox="0 0 57 71" fill="none" xmlns="http://www.w3.org/2000/svg">
<path d="M57 60.6733C57 67.774 42.224 71 28.5 71C14.776 71 0 67.7722 0 60.6733C0 55.1865 8.21773 52.6057 15.1006 51.4346C16.5171 51.1924 17.8538 52.1196 18.0968 53.5328C18.3398 54.9461 17.4094 56.2762 15.9911 56.5184C7.65187 57.9715 5.30317 60.2305 5.18165 60.7131C5.5861 62.0848 13.3595 65.8367 28.5 65.8367C43.6405 65.8367 51.4139 62.0848 51.8183 60.6336C51.6968 60.2305 49.3481 57.9715 41.0089 56.5184C39.5924 56.2762 38.6602 54.9443 38.9032 53.5328C39.1462 52.1214 40.4829 51.1924 41.8994 51.4346C48.7823 52.6039 57 55.1865 57 60.6733ZM41.4532 24.5281V40.0181C41.4532 41.4296 40.2798 42.6007 38.8615 42.6007H36.2698V58.0907C36.2698 59.5022 35.0963 60.6733 33.678 60.6733H23.3147C21.8982 60.6733 20.723 59.504 20.723 58.0907V42.6007H18.1313C16.7148 42.6007 15.5395 41.4314 15.5395 40.0181V24.5281C15.5395 21.6636 17.8465 19.3648 20.7212 19.3648H36.2661C39.1408 19.3648 41.4478 21.6636 41.4478 24.5281H41.4532ZM37.5665 9.0363C37.5665 14.0388 33.5184 18.0726 28.4982 18.0726C23.4779 18.0726 19.4298 14.0388 19.4298 9.0363C19.4298 4.0338 23.4779 0 28.4982 0C33.5184 0 37.5665 4.0338 37.5665 9.0363Z" fill="#AC8158"/>
</svg>
