<svg width="70" height="56" viewBox="0 0 70 56" fill="none" xmlns="http://www.w3.org/2000/svg">
<path d="M60.5159 35.8854C60.1783 33.5509 58.3673 31.7309 56.0358 31.1884C46.9738 29.0744 44.7021 23.8804 44.3188 18.1194C42.7117 17.8219 39.8528 17.4999 35 17.4999C30.1472 17.4999 27.2883 17.8219 25.6812 18.1194C25.2979 23.8804 23.0263 29.0744 13.9642 31.1884C11.6328 31.7344 9.82175 33.5509 9.48416 35.8854L7.73645 47.9324C7.12106 52.1744 10.2508 55.9999 14.6042 55.9999H55.3958C59.7458 55.9999 62.879 52.1744 62.2636 47.9324L60.5159 35.8854ZM35 47.2219C30.0945 47.2219 26.1173 43.3019 26.1173 38.4719C26.1173 33.6419 30.0945 29.7219 35 29.7219C39.9056 29.7219 43.8827 33.6419 43.8827 38.4719C43.8827 43.3019 39.9021 47.2219 35 47.2219ZM69.9894 13.9999C69.905 8.74988 56.4789 0.00337793 35 -0.00012207C13.5176 0.00337793 0.0915406 8.74988 0.0106606 13.9999C-0.0702193 19.2499 0.0845077 26.0819 8.92504 24.9444C19.2671 23.6109 18.6306 20.0164 18.6306 14.8784C18.6306 11.2944 27.0421 10.4299 35 10.4299C42.9579 10.4299 51.3659 11.2944 51.3694 14.8784C51.3694 20.0164 50.7329 23.6109 61.075 24.9444C69.912 26.0819 70.0703 19.2499 69.9894 13.9999Z" fill="#AC8158"/>
</svg>
