<svg width="73" height="53" viewBox="0 0 73 53" fill="none" xmlns="http://www.w3.org/2000/svg">
<path d="M56.3813 48.041C57.8313 48.041 59.0221 47.5504 59.9539 46.5691C60.8857 45.5879 61.3516 44.4255 61.3516 43.082C61.3516 41.7384 60.8857 40.576 59.9539 39.5948C59.0221 38.6136 57.8313 38.1229 56.3813 38.1229C54.9312 38.1229 53.7404 38.6136 52.8086 39.5948C51.8768 40.576 51.4109 41.7384 51.4109 43.082C51.4109 44.4255 51.8768 45.5879 52.8086 46.5691C53.7404 47.5504 54.9312 48.041 56.3813 48.041ZM61.3516 18.2869H53.1187V26.501H67.8746L61.3516 18.2869ZM16.6187 48.041C18.0687 48.041 19.2596 47.5504 20.1914 46.5691C21.1232 45.5879 21.5891 44.4255 21.5891 43.082C21.5891 41.7384 21.1232 40.576 20.1914 39.5948C19.2596 38.6136 18.0687 38.1229 16.6187 38.1229C15.1687 38.1229 13.9778 38.6136 13.0461 39.5948C12.1143 40.576 11.6484 41.7384 11.6484 43.082C11.6484 44.4255 12.1143 45.5879 13.0461 46.5691C13.9778 47.5504 15.1687 48.041 16.6187 48.041ZM63.0594 13.3279L73 26.501V43.082H66.3219C66.3219 45.7678 65.3384 48.0926 63.3715 50.0563C61.4046 52.0201 59.0745 53.0013 56.3813 53C53.688 52.9987 51.3579 52.0175 49.391 50.0563C47.4241 48.0952 46.4406 45.7704 46.4406 43.082H26.5594C26.5594 45.7678 25.5759 48.0926 23.609 50.0563C21.6421 52.0201 19.312 53.0013 16.6187 53C13.9255 52.9987 11.5954 52.0175 9.62849 50.0563C7.66157 48.0952 6.67811 45.7704 6.67811 43.082H0V6.66492C0 4.90877 0.673312 3.35891 2.01994 2.01535C3.36656 0.671782 4.91995 0 6.6801 0H53.1207V13.3279H63.0594Z" fill="#AC8158"/>
</svg>
